<svg width="13" height="13" viewBox="0 0 13 13" fill="none" xmlns="http://www.w3.org/2000/svg">
<path d="M5.70375 1.12692H3.52266C1.72891 1.12692 0.604248 2.39684 0.604248 4.19467V9.04451C0.604248 10.8423 1.72366 12.1123 3.52266 12.1123H8.67C10.4696 12.1123 11.589 10.8423 11.589 9.04451V6.69484" stroke="#303336" stroke-linecap="round" stroke-linejoin="round"/>
<path fill-rule="evenodd" clip-rule="evenodd" d="M4.14937 5.87053L8.50862 1.51128C9.0517 0.968776 9.93195 0.968776 10.475 1.51128L11.185 2.22119C11.728 2.76428 11.728 3.64511 11.185 4.18761L6.8047 8.56786C6.56729 8.80528 6.24529 8.93886 5.90929 8.93886H3.72412L3.77895 6.73386C3.78712 6.40953 3.91954 6.10036 4.14937 5.87053Z" stroke="#303336" stroke-linecap="round" stroke-linejoin="round"/>
<path d="M7.84619 2.1848L10.5097 4.8483" stroke="#303336" stroke-linecap="round" stroke-linejoin="round"/>
</svg>
